<?xml version="1.0" encoding="utf-8"?>
<!-- Generator: Adobe Illustrator 16.0.0, SVG Export Plug-In . SVG Version: 6.00 Build 0)  -->
<!DOCTYPE svg PUBLIC "-//W3C//DTD SVG 1.1//EN" "http://www.w3.org/Graphics/SVG/1.1/DTD/svg11.dtd">
<svg version="1.1" id="Layer_1" xmlns="http://www.w3.org/2000/svg" xmlns:xlink="http://www.w3.org/1999/xlink" x="0px" y="0px"
	 width="368.3px" height="134px" viewBox="0 0 368.3 134" enable-background="new 0 0 368.3 134" xml:space="preserve">
<g>
	<path fill="#333333" d="M182.1,47.6c0-4.4-3-6.5-8.8-6.5c-5.9,0-8.9,2.1-8.9,6.5V49c0,3.2,2.3,4.3,3.7,4.9l15.8,5.6
		c6.2,2.2,10.7,6.3,10.7,13v7c0,7.6-5.3,14.8-21.6,14.8c-16.1,0-21.6-7.2-21.6-14.8v-5.7c0-1.6,0.6-2.4,2.2-2.4h7.6
		c1.6,0,2.2,0.7,2.2,2.4v4.1c0,4.4,3.4,6.5,9.6,6.5c6.1,0,9.6-2.1,9.6-6.5v-2.9c0-3.7-3.6-5.2-7.7-6.7l-14-5.3
		c-4.3-1.6-8.2-6.2-8.2-11.7V46c0-7.6,4.7-14.8,20.6-14.8c15.8,0,20.9,7.2,20.9,14.8v3.7c0,1.5-0.6,2.3-2.3,2.3h-7.6
		c-1.5,0-2.1-0.7-2.1-2.3V47.6z"/>
	<path fill="#333333" d="M322.6,31.9c1.5,0,2.3,0.5,2.3,2.2v5.7c0,1.6-0.7,2.3-2.3,2.3h-23.1v14.7h21.6c1.6,0,2.3,0.5,2.3,2.2v5.8
		c0,1.6-0.6,2.3-2.3,2.3h-21.6v24.2c0,1.6-0.5,2.4-2.2,2.4h-7.9c-1.6,0-2.2-0.7-2.2-2.4V34.3c0-1.6,0.5-2.4,2.2-2.4H322.6z"/>
	<g>
		<path fill="#333333" d="M347.7,83.7c-0.1,0-1.5,0.2-2,0.2c-3.8,0-4.9-1.5-4.9-4.8V50.7c0-1.6-0.7-2.3-2.3-2.3h-7.4
			c-1.5,0-2.2,0.6-2.2,2.3v31.4c0,7.1,4.8,12.1,13,12.1c2,0,3.8-0.2,5.4-0.6c0.1,0,0.2-0.1,0.4-0.1
			C347.9,93.5,348.3,83.6,347.7,83.7z"/>
		<path fill="#333333" d="M365.3,48.4h-7.5c-1.6,0-2.2,0.6-2.2,2.3v29.3c0,0,0.5,11.3,0.5,11.3c0.2,1.6,0.6,2.3,2.3,2.3h7
			c1.5,0,2.2-0.6,2.2-2.3V50.7C367.5,49,366.8,48.4,365.3,48.4z"/>
	</g>
	<path fill="#333333" d="M280.5,48.4h-6.9c-1.5,0-2,0.8-2.4,2.3l-14.2,44l0,0l-4.4,14.8c-0.5,1.5,0.5,2.3,2.2,2.3h5.4
		c1.6,0,2.2-1.1,2.5-2.3l20-58.8C283.2,49.2,282.1,48.4,280.5,48.4z"/>
	<path fill="#333333" d="M219.9,83.6c-1.5-0.4-2.2,0.5-2.2,2.1V91c0,1.6,1,2.1,2.2,2.4V83.6z"/>
	<path fill="#333333" d="M347.5,83.8c1.5-0.4,2.2,0.5,2.2,2.1v5.2c0,1.6-1,2.1-2.2,2.4V83.8z"/>
	<path fill="#333333" d="M258.7,65.7c-0.3-0.9-4.9-15.1-4.9-15.1c-0.5-1.4-0.9-2.3-2.5-2.3h-7.5c-1.5,0-2.6,0.8-2.1,2.3L253,83.3
		c0,0,0.9,1.1,1.2,0c1.2-4.1,4.1-13.5,4.5-14.7C259.1,67,259,66.6,258.7,65.7z"/>
	<path fill="#333333" d="M226.2,47.7c-7.4,0-12,3.2-14.5,5.2l-0.2-2.2c-0.1-1.6-0.5-2.3-2.2-2.3h-7c-1.6,0-2.3,0.6-2.3,2.3v58.8
		c0,1.6,0.6,2.3,2.3,2.3h7.5c1.5,0,2.1-0.6,2.1-2.3v-20c0,0,0-27.3,0-27.3c1.9-1.4,5.9-4.2,10.5-4.2c4.2,0,4.9,2.4,4.9,4.7v16.4
		c0,2.4-0.7,4.8-4.9,4.8c-1,0-1.9-0.1-2.8-0.3c-0.6-0.1-0.6,9.6,0,9.7c1.9,0.5,4,0.9,6.5,0.9c9,0,13.1-5.2,13.1-13.2V60.9
		C239.4,52.8,235.2,47.7,226.2,47.7z"/>
</g>
<g>
	<path fill="#333333" d="M82.8,7.2c-4.9-1.3-9.7-2.1-14.6-2.3l0.5,5.7c4.2,0.2,8.3,0.9,12.5,2c30.8,8.5,49,40.2,41.1,71l0,0
		c-3.5,12.6-10.9,23.2-20.5,30.6l-11-13.1c-0.2-0.2-0.2-0.5-0.2-0.8l4.3-13.8l-23.6,4.4c-0.2,0-0.5,0-0.7-0.2
		c-0.2-0.2-0.3-0.4-0.3-0.6l0.1-3.9c0-0.3,0.1-0.5,0.3-0.6l19.4-14.3c-0.9-3.3-5.7-21.4-11.3-28.6c-0.2-0.2-0.2-0.6-0.1-0.8
		s0.4-0.5,0.7-0.5l28.8-1.4L68.4,20.7C68.2,20.6,68,20.3,68,20L66.2,1L20.1,14l3.2,13.3c0.1,0.3,0,0.6-0.3,0.8l-15,11l-0.4,2
		l20.1,1.9c0.3,0,0.6,0.3,0.7,0.6l10.6,43.7c0,0.1,0,0.2,0,0.3l0.3,1.1l-0.9-0.4c-0.1,0-0.3,0-0.4,0l-24.6-9.3l2,18.4
		c-7-12.1-9.8-26.8-6.7-41.4c0.2-0.9,0.4-1.7,0.6-2.6c0.7-2.7,2.4-6.9,3.9-10.2l-6-0.6c-1.2,2.6-2.2,5.4-3,8.2L4,51
		c-0.4,1.3-0.7,2.6-1,3.9c-7.5,33.2,12.4,66.9,45.6,76.1c34.1,9.4,69.6-10.7,79-44.8C137,52.1,116.9,16.6,82.8,7.2z M50.9,83.3
		L86,72.8L66.4,84.6L50.9,83.3z"/>
	<path fill="#EC1C27" d="M81.9,124.4L68.5,98l-15.3-1.6l22.4,29.4C77.7,125.5,79.8,125,81.9,124.4z"/>
</g>
<rect x="-45" y="-32" fill="none" width="435.3" height="198"/>
</svg>
